<?xml version="1.0" encoding="utf-8"?>
<!-- Generator: Adobe Illustrator 19.0.0, SVG Export Plug-In . SVG Version: 6.00 Build 0)  -->
<svg version="1.1" id="Layer_1" xmlns="http://www.w3.org/2000/svg" xmlns:xlink="http://www.w3.org/1999/xlink" x="0px" y="0px"
	 viewBox="180 286 972 222" style="enable-background:new 180 286 972 222;" xml:space="preserve">
<style type="text/css">
	.st0{fill:#009AE6;}
	.st1{fill:#211F20;}
	.st2{fill:#009CDF;}
	.st3{enable-background:new    ;}
</style>
<path class="st0" d="M491.5,293.4h-266c-19.4,0-35.1,15.7-35.1,35.1v136.8c0,19.8,16.1,35.9,35.9,35.9h176.6l28-59.3l-39-100.8h28
	l25.3,76.8l35.3-78h45.3v-12.4C525.6,308.7,510.4,293.4,491.5,293.4z M393.9,475.4l-24.5,0.5l-19.5-98.5l-49.5,106.8l-48.5-106.8
	l-20,97.5h-25l38-164.5l55.5,121l55-121L393.9,475.4z"/>
<path class="st1" d="M581.1,375.4v17.8l17.8-5.3v-7.6c0-12.1-9.8-21.9-21.9-21.9h-80.5c-12.1,0-21.9,9.8-21.9,21.9v25.3
	c0,12.1,9.8,21.9,21.9,21.9h85.6v38h-93v-20.8l-19.3,4.5v11.6c0,12.1,9.8,21.9,21.9,21.9H579c12.1,0,21.9-9.8,21.9-21.9v-29
	c0-12.1-9.8-21.9-21.9-21.9h-86.4v-35.3L581.1,375.4z"/>
<path class="st1" d="M696.6,395.4v23l16.3-3.3v-15.5c0-9.5-7.7-17.3-17.3-17.3h-68c-9.5,0-17.3,7.7-17.3,17.3v65.8
	c0,9.5,7.7,17.3,17.3,17.3h68c9.5,0,17.3-7.7,17.3-17.3v-19.5l-16.5-2.8v25.5h-69.8v-73L696.6,395.4z"/>
<path class="st1" d="M857.9,481.4h67.8v-12.8h-59.5v-33h59.5v-14.3h-59.5v-25.8h59.5v-13.3h-67.8c-3.9,0-7,3.1-7,7v85
	C850.9,478.3,854,481.4,857.9,481.4z"/>
<path class="st2" d="M1005.9,395.3h-72.8v-12.9h64.7c4.5,0,8.1,3.6,8.1,8.1V395.3z"/>
<path class="st2" d="M997.8,481.4h-64.7v-12.9h72.8v4.8C1005.9,477.8,1002.3,481.4,997.8,481.4z"/>
<rect x="932.6" y="420.8" class="st2" width="73.3" height="14.2"/>
<polygon class="st1" points="1037.6,482.7 1037.6,401.9 1124.2,482.7 1133.6,482.7 1133.6,382.4 1117.9,382.4 1118.9,461.6 
	1033.2,382.4 1022.6,382.4 1022.6,482.7 "/>
<path class="st1" d="M799.9,443.4h19.8c8.7,0,15.8-7.1,15.8-15.8v-29.5c0-8.7-7.1-15.8-15.8-15.8h-85.8v100.3h17v-39.5h29l41.8,39.5
	h24.5L799.9,443.4z M750.1,430.6v-35.9h59.6c5.8,0,10.6,4.7,10.6,10.6V420c0,5.8-4.7,10.6-10.6,10.6L750.1,430.6L750.1,430.6z"/>
<g class="st3">
	<path d="M712.2,342.6h-12.6v5h11.2c1.6,0,2.7,0.3,3.3,0.9c0.6,0.6,0.9,1.7,0.9,3.3v2c0,1.6-0.3,2.8-0.9,3.3
		c-0.6,0.6-1.7,0.9-3.3,0.9h-10.4c-1.6,0-2.7-0.3-3.3-0.9c-0.6-0.6-0.9-1.7-0.9-3.3v-0.5l2.8-0.6v2.9h13.3v-5.4h-11.2
		c-1.6,0-2.7-0.3-3.3-0.9s-0.9-1.7-0.9-3.3v-1.6c0-1.6,0.3-2.7,0.9-3.3c0.6-0.6,1.7-0.9,3.3-0.9h9.5c1.6,0,2.7,0.3,3.3,0.9
		c0.6,0.6,0.9,1.6,0.9,3v0.4l-2.5,0.7V342.6z"/>
	<path d="M724.7,344.4c0-1.6,0.3-2.7,0.9-3.3c0.6-0.6,1.7-0.9,3.3-0.9h12.3c1.6,0,2.7,0.3,3.3,0.9c0.6,0.6,0.9,1.7,0.9,3.3v9.4
		c0,1.6-0.3,2.8-0.9,3.3s-1.7,0.9-3.3,0.9h-12.3c-1.6,0-2.7-0.3-3.3-0.9s-0.9-1.7-0.9-3.3V344.4z M727.7,355.5h14.8v-12.9h-14.8
		V355.5z"/>
	<path d="M755.4,358v-17.8h17v2.4h-14v5.8h8v2.4h-8v7.2H755.4z"/>
	<path d="M787.2,342.6V358h-3v-15.4h-8.1v-2.4h19.3v2.4H787.2z"/>
	<path d="M804.3,358l-6.5-17.8h3l4.8,14.2l5.3-14.2h1.8l5.1,14.2l4.9-14.2h2.7l-6.5,17.8h-2.2l-4.9-13.5l-5.1,13.5H804.3z"/>
	<path d="M827.5,358l9.7-17.8h3.2l9.9,17.8H847l-2.3-4.4h-12.1l-2.3,4.4H827.5z M834,351.3h9.6l-4.8-9.1L834,351.3z"/>
	<path d="M857.1,358v-17.8h14.4c1.3,0,2.3,0.3,2.9,0.8c0.6,0.5,0.9,1.4,0.9,2.6v4c0,1.2-0.3,2.1-0.9,2.6c-0.6,0.5-1.6,0.8-2.9,0.8
		h-2.6l8.1,6.9h-4.4l-7.3-6.9H860v6.9H857.1z M870.3,342.5H860v6.3h10.2c0.7,0,1.2-0.1,1.5-0.4c0.3-0.3,0.4-0.7,0.4-1.4v-2.6
		c0-0.7-0.1-1.1-0.4-1.4S871,342.5,870.3,342.5z"/>
	<path d="M884.3,358v-17.8h17.2v2.4h-14.2v5h8.7v2.4h-8.7v5.7h14.3v2.4H884.3z"/>
</g>
</svg>
