<?xml version="1.0" encoding="utf-8"?>
<!-- Generator: Adobe Illustrator 19.0.0, SVG Export Plug-In . SVG Version: 6.00 Build 0)  -->
<svg version="1.1" id="Layer_1" xmlns="http://www.w3.org/2000/svg" xmlns:xlink="http://www.w3.org/1999/xlink" x="0px" y="0px"
	 viewBox="180 286 972 222" style="enable-background:new 180 286 972 222;" xml:space="preserve">
<style type="text/css">
	.st0{fill:#FFFFFF;}
	.st1{fill:#211F20;}
	.st2{fill:#FFFFFF;}
</style>
<path class="st0" d="M491.5,293.4h-266c-19.4,0-35.1,15.7-35.1,35.1v136.8c0,19.8,16.1,35.9,35.9,35.9h176.6l28-59.3l-39-100.8h28
	l25.3,76.8l35.3-78h45.3v-12.4C525.6,308.7,510.4,293.4,491.5,293.4z M393.9,475.4l-24.5,0.5l-19.5-98.5l-49.5,106.8l-48.5-106.8
	l-20,97.5h-25l38-164.5l55.5,121l55-121L393.9,475.4z"/>
<path class="st1" d="M581.1,375.4v17.8l17.8-5.3v-7.6c0-12.1-9.8-21.9-21.9-21.9h-80.5c-12.1,0-21.9,9.8-21.9,21.9v25.3
	c0,12.1,9.8,21.9,21.9,21.9h85.6v38h-93v-20.8l-19.3,4.5v11.6c0,12.1,9.8,21.9,21.9,21.9H579c12.1,0,21.9-9.8,21.9-21.9v-29
	c0-12.1-9.8-21.9-21.9-21.9h-86.4v-35.3L581.1,375.4z"/>
<path class="st1" d="M696.6,395.4v23l16.3-3.3v-15.5c0-9.5-7.7-17.3-17.3-17.3h-68c-9.5,0-17.3,7.7-17.3,17.3v65.8
	c0,9.5,7.7,17.3,17.3,17.3h68c9.5,0,17.3-7.7,17.3-17.3v-19.5l-16.5-2.8v25.5h-69.8v-73L696.6,395.4z"/>
<path class="st1" d="M857.9,481.4h67.8v-12.8h-59.5v-33h59.5v-14.3h-59.5v-25.8h59.5v-13.3h-67.8c-3.9,0-7,3.1-7,7v85
	C850.9,478.3,854,481.4,857.9,481.4z"/>
<path class="st2" d="M1005.9,395.3h-72.8v-12.9h64.7c4.5,0,8.1,3.6,8.1,8.1V395.3z"/>
<path class="st2" d="M997.8,481.4h-64.7v-12.9h72.8v4.8C1005.9,477.8,1002.3,481.4,997.8,481.4z"/>
<rect x="932.6" y="420.8" class="st2" width="73.3" height="14.2"/>
<polygon class="st1" points="1037.6,482.7 1037.6,401.9 1124.2,482.7 1133.6,482.7 1133.6,382.4 1117.9,382.4 1118.9,461.6 
	1033.2,382.4 1022.6,382.4 1022.6,482.7 "/>
<path class="st1" d="M799.9,443.4h19.8c8.7,0,15.8-7.1,15.8-15.8v-29.5c0-8.7-7.1-15.8-15.8-15.8h-85.8v100.3h17v-39.5h29l41.8,39.5
	h24.5L799.9,443.4z M750.1,430.6v-35.9h59.6c5.8,0,10.6,4.7,10.6,10.6V420c0,5.8-4.7,10.6-10.6,10.6L750.1,430.6L750.1,430.6z"/>
</svg>
